<?xml version="1.0" encoding="iso-8859-1"?>
<!-- Generator: Adobe Illustrator 19.0.0, SVG Export Plug-In . SVG Version: 6.00 Build 0)  -->
<svg version="1.1" id="Layer_1" xmlns="http://www.w3.org/2000/svg" xmlns:xlink="http://www.w3.org/1999/xlink" x="0px" y="0px"
	 viewBox="0 0 512.002 512.002" style="enable-background:new 0 0 512.002 512.002;" xml:space="preserve">
<circle style="fill:#E6F3FF;" cx="256.001" cy="256" r="256"/>
<path style="fill:#CFDBE6;" d="M361.799,489.179c77.459-35.2,134.28-107.858,147.344-194.843l-75.143-75.143l-6.718,13.679
	L321.816,127.409l-75.39,65.586l-26.631-26.631L85.334,188.071l64.36,64.36l-12.497,6.365l33.363,33.363l-3.624,2.162
	L361.799,489.179z"/>
<path style="fill:#FF6472;" d="M342.853,215.05c3.429-13.128,16.851-20.989,29.98-17.558c13.128,3.431,20.99,16.851,17.56,29.979
	c3.429-13.128,16.851-20.989,29.98-17.558c13.129,3.431,20.99,16.851,17.56,29.979c-5.939,22.728-60.58,37.493-60.58,37.493
	S336.581,239.059,342.853,215.05z"/>
<path style="fill:#FED8B2;" d="M232.956,315.097v-21.652h-39.048v21.652c0,1.727-1.402,3.129-3.129,3.129H163.87v74.719h99.125
	v-74.719h-26.908C234.357,318.226,232.956,316.825,232.956,315.097z"/>
<path style="fill:#EABE96;" d="M262.993,318.226h-26.908c-1.727,0-3.129-1.402-3.129-3.129v-21.652h-20.418v99.499h50.455V318.226z"
	/>
<circle style="fill:#FED8B2;" cx="148.533" cy="248.087" r="15.601"/>
<circle style="fill:#EABE96;" cx="275.016" cy="248.087" r="15.601"/>
<path style="fill:#F4E3C3;" d="M213.527,313.063h-3.517c-32.527,0-58.894-26.367-58.894-58.894v-53.772
	c0-32.527,26.369-58.894,58.894-58.894h3.517c32.527,0,58.894,26.367,58.894,58.894v53.772
	C272.421,286.696,246.054,313.063,213.527,313.063z"/>
<path style="fill:#FED8B2;" d="M213.527,141.503h-0.99v171.561h0.99c32.527,0,58.894-26.367,58.894-58.894v-53.772
	C272.421,167.87,246.054,141.503,213.527,141.503z"/>
<circle style="fill:#59595B;" cx="183.166" cy="241.14" r="6.065"/>
<circle style="fill:#272525;" cx="240.365" cy="241.14" r="6.065"/>
<path style="fill:#FF6472;" d="M267.249,318.226h-20.777c0,18.248-33.042,35.969-33.042,35.969s-33.042-17.72-33.042-35.969h-20.775
	c-25.022,0-45.306,20.285-45.306,45.306v105.694C154.882,496.243,203.598,512,256.001,512c19.435,0,38.36-2.177,56.554-6.282
	V363.532C312.555,338.51,292.272,318.226,267.249,318.226z"/>
<path style="fill:#C75163;" d="M267.249,318.226h-20.777c0,18.248-33.042,35.969-33.042,35.969s-0.409-0.221-1.102-0.615v154.664
	c14.196,2.443,28.777,3.758,43.672,3.758c19.435,0,38.36-2.177,56.554-6.282V363.534
	C312.555,338.51,292.272,318.226,267.249,318.226z"/>
<path style="fill:#FD8469;" d="M211.767,290.857c-10.928,0-19.818-8.89-19.818-19.818c0-1.853,1.502-3.355,3.355-3.355
	s3.355,1.502,3.355,3.355c0,7.228,5.882,13.109,13.109,13.109c7.227,0,13.109-5.882,13.109-13.109c0-1.853,1.502-3.355,3.355-3.355
	c1.853,0,3.355,1.502,3.355,3.355C231.585,281.967,222.695,290.857,211.767,290.857z"/>
<g>
	<path style="fill:#FC6F58;" d="M231.585,271.039c0-1.853-1.502-3.355-3.355-3.355c-1.853,0-3.355,1.502-3.355,3.355
		c0,6.968-5.47,12.669-12.34,13.071v6.708C223.107,290.409,231.585,281.707,231.585,271.039z"/>
	<path style="fill:#FC6F58;" d="M165.691,180.645c0,0-2.958-37.543-60.645-53.238l-19.711,60.663L165.691,180.645z"/>
</g>
<g>
	<path style="fill:#F1543F;" d="M261.173,180.645c0,0,2.958-37.543,60.645-53.238l19.711,60.663L261.173,180.645z"/>
	<path style="fill:#F1543F;" d="M266.646,227.462v20.616h10.974v-33.673v-16.313c0-13.655-4.294-26.3-11.586-36.686
		c-11.566-16.475-30.698-27.255-52.357-27.255h-3.818c-35.314,0-63.943,28.627-63.943,63.943v4.944v45.04h9.387v-20.616H266.646z"/>
</g>
<path style="fill:#D83E20;" d="M266.034,161.406c-11.566-16.475-30.698-27.255-52.357-27.255h-1.348v93.312h54.315v20.616h10.974
	v-33.673v-16.313C277.62,184.437,273.326,171.792,266.034,161.406z"/>
<path style="fill:#F9E382;" d="M338.112,394.304l-18.454,3.798c-8.38,1.724-14.602,8.795-15.246,17.325l-7.042,93.229
	c35.176-5.716,67.951-18.584,96.768-37.088l-35.178-67.365C355,396.619,346.492,392.58,338.112,394.304z"/>
<path style="fill:#F2DA75;" d="M358.959,404.201c-3.96-7.583-12.467-11.623-20.847-9.897l-9.85,2.027l20.252,98.428
	c16.053-6.225,31.327-14.01,45.625-23.192L358.959,404.201z"/>
<path style="fill:#FFD15D;" d="M341.327,334.934c-7.966-2.238-16.567-2.67-25.231-0.888c-8.664,1.783-16.394,5.577-22.831,10.78
	l-32.318-13.096l13.49,65.56c5.96,28.967,34.275,47.616,63.243,41.655c28.969-5.961,47.619-34.276,41.66-63.241l-13.49-65.56
	L341.327,334.934z"/>
<path style="fill:#F9B54C;" d="M341.327,334.934c-7.966-2.238-16.567-2.67-25.231-0.888c-0.21,0.043-0.412,0.102-0.621,0.148
	l21.576,104.862c0.209-0.04,0.417-0.069,0.628-0.112c28.969-5.961,47.619-34.276,41.66-63.241l-13.49-65.56L341.327,334.934z"/>
<circle style="fill:#324A5E;" cx="304.701" cy="397.998" r="4.353"/>
<circle style="fill:#2B3B4E;" cx="351.816" cy="388.31" r="4.353"/>
<path style="fill:#324A5E;" d="M347.576,412.489c0.757,3.675-1.619,7.28-5.294,8.035c-2.372,0.488-4.767-0.321-6.384-2.098
	l-2.665-12.955c1.786-1.695,3.999-4.343,3.51-6.727c-0.8-3.886-3.808-2.55-7.694-1.75s-7.178,0.76-6.378,4.646
	c0.491,2.384,3.57,3.944,5.88,4.794l2.665,12.955c-0.784,2.272-2.665,3.96-5.036,4.448c-3.675,0.757-7.28-1.617-8.037-5.292
	l-4.684,0.964c1.288,6.258,7.425,10.3,13.683,9.013c3.091-0.636,5.706-2.457,7.361-5.008c2.529,1.689,5.651,2.329,8.74,1.693
	c6.258-1.288,10.3-7.425,9.013-13.683L347.576,412.489z"/>
<path style="fill:#2B3B4E;" d="M347.576,412.489c0.757,3.675-1.619,7.28-5.294,8.035c-2.372,0.488-4.767-0.321-6.384-2.098
	l-2.665-12.955c1.786-1.695,3.999-4.343,3.51-6.727c-0.8-3.886-3.808-2.55-7.694-1.75c-0.21,0.043-0.419,0.083-0.626,0.122
	l5.575,27.098c0.174-0.229,0.348-0.459,0.507-0.702c2.529,1.689,5.651,2.329,8.74,1.693c6.258-1.288,10.3-7.425,9.013-13.683
	L347.576,412.489z"/>
<path style="fill:#F9B54C;" d="M331.484,369.685l-7.539-36.636c-2.601,0.145-5.22,0.457-7.849,0.998
	c-2.629,0.541-5.16,1.288-7.606,2.182l7.539,36.636c0.877,4.267,5.049,7.015,9.318,6.137
	C329.613,378.123,332.361,373.951,331.484,369.685z"/>
<g>
	<path style="fill:#F4A200;" d="M316.096,334.045c-0.209,0.043-0.414,0.095-0.622,0.141l9.24,44.911
		c0.21-0.026,0.421-0.053,0.631-0.097c4.268-0.877,7.016-5.049,6.137-9.318l-7.539-36.636
		C321.344,333.191,318.725,333.505,316.096,334.045z"/>
	<path style="fill:#F4A200;" d="M338.228,359.755c2.974-0.612,4.889-3.518,4.277-6.494l-3.912-19.011
		c-3.729-0.84-7.578-1.271-11.492-1.286l4.632,22.512C332.346,358.452,335.252,360.367,338.228,359.755z"/>
</g>
<path style="fill:#F9B54C;" d="M295.508,343.116l3.912,19.011c0.612,2.974,3.52,4.889,6.494,4.277s4.889-3.518,4.277-6.494
	l-4.632-22.512C301.969,338.958,298.602,340.873,295.508,343.116z"/>
<g>
</g>
<g>
</g>
<g>
</g>
<g>
</g>
<g>
</g>
<g>
</g>
<g>
</g>
<g>
</g>
<g>
</g>
<g>
</g>
<g>
</g>
<g>
</g>
<g>
</g>
<g>
</g>
<g>
</g>
</svg>
